<svg xmlns="http://www.w3.org/2000/svg" viewBox="0 0 1400 180" width="1400" height="180" aria-hidden="true" focusable="false">
  <defs>
    <linearGradient id="usap-divider-line" x1="0" y1="0" x2="1" y2="0">
      <stop offset="0" stop-color="#0057B8" stop-opacity="0"/>
      <stop offset="0.18" stop-color="#0057B8" stop-opacity="0.18"/>
      <stop offset="0.78" stop-color="#8EC5F4" stop-opacity="0.20"/>
      <stop offset="1" stop-color="#8EC5F4" stop-opacity="0"/>
    </linearGradient>
  </defs>
  <path d="M0 106H500L536 70H660L696 106H1400" fill="none" stroke="url(#usap-divider-line)" stroke-width="2"/>
  <g transform="translate(650 22)" fill="none" stroke="#0057B8" stroke-width="2" stroke-linecap="round" stroke-linejoin="round" opacity="0.28">
    <path d="M10 118L28 36L46 118M19 118L28 36L37 118M13 98H43M17 78H39M21 58H35"/>
    <path d="M28 38V6M28 16H90M30 11L90 16L30 21M48 7V26M62 9V24M76 11V22M90 13V20"/>
  </g>
  <g fill="none" stroke="#0057B8" stroke-linecap="round" opacity="0.18">
    <path d="M742 38a28 28 0 0 1 28 28"/>
    <path d="M742 22a44 44 0 0 1 44 44"/>
  </g>
  <circle cx="536" cy="70" r="4" fill="#C8102E" opacity="0.56"/>
  <circle cx="696" cy="106" r="3" fill="#8EC5F4" opacity="0.34"/>
</svg>
